<svg width="360" height="72" viewBox="0 0 360 72" fill="none" xmlns="http://www.w3.org/2000/svg" role="img" aria-labelledby="title desc">
  <title id="title">thethe9.com logo</title>
  <desc id="desc">Dynamic horse-racing logo with galloping horse silhouette and 9 accent</desc>

  <defs>
    <linearGradient id="horseGrad" x1="0" y1="0" x2="1" y2="1">
      <stop offset="0%" stop-color="#8EE8FF"/>
      <stop offset="100%" stop-color="#2D86FF"/>
    </linearGradient>
    <linearGradient id="speedGrad" x1="0" y1="0" x2="1" y2="0">
      <stop offset="0%" stop-color="#63D8FF" stop-opacity="0"/>
      <stop offset="52%" stop-color="#63D8FF" stop-opacity="0.95"/>
      <stop offset="100%" stop-color="#63D8FF" stop-opacity="0"/>
    </linearGradient>
    <linearGradient id="nineGrad" x1="0" y1="0" x2="1" y2="1">
      <stop offset="0%" stop-color="#73E6FF"/>
      <stop offset="100%" stop-color="#2D83FF"/>
    </linearGradient>
  </defs>

  <path d="M8 47C38 40 67 31 96 18" stroke="url(#speedGrad)" stroke-width="3.1" stroke-linecap="round"/>
  <path d="M14 55C45 49 74 41 104 27" stroke="url(#speedGrad)" stroke-width="2.5" stroke-linecap="round" opacity="0.82"/>

  <path d="M78 20C84 16 93 15 100 18C106 20 112 24 119 24C123 24 127 23 131 21L138 24L146 23"
        stroke="url(#horseGrad)" stroke-width="2.8" stroke-linecap="round" stroke-linejoin="round"/>
  <path d="M110 27C116 31 121 36 128 38C133 39 139 38 145 36"
        stroke="url(#horseGrad)" stroke-width="2.4" stroke-linecap="round" stroke-linejoin="round" opacity="0.92"/>

  <text x="116" y="50"
        fill="url(#nineGrad)"
        font-size="52"
        font-family="Pretendard, Noto Sans KR, Apple SD Gothic Neo, Malgun Gothic, Segoe UI, sans-serif"
        font-style="italic"
        font-weight="900">9</text>

  <text x="160" y="43"
        fill="#EAF1FF"
        font-size="27"
        font-family="Pretendard, Noto Sans KR, Apple SD Gothic Neo, Malgun Gothic, Segoe UI, sans-serif"
        font-weight="800"
        letter-spacing="0.15">thethe9.com</text>
  <rect x="160" y="49" width="145" height="2.4" rx="1.2" fill="#65B6FF" opacity="0.92"/>
</svg>
